<mxfile host="app.diagrams.net" modified="2023-05-11T06:52:18.014Z" agent="Mozilla/5.0 (X11; Linux x86_64; rv:109.0) Gecko/20100101 Firefox/113.0" etag="mcY8Dsak2UrGAOSsnKxA" version="21.2.9" type="device">
  <diagram name="Page-1" id="tYO-NUGwhWylsvcBStcq">
    <mxGraphModel dx="1687" dy="816" grid="1" gridSize="10" guides="1" tooltips="1" connect="1" arrows="1" fold="1" page="1" pageScale="1" pageWidth="827" pageHeight="1169" math="0" shadow="0">
      <root>
        <mxCell id="0" />
        <mxCell id="1" parent="0" />
        <mxCell id="LtcZwzsu3ktegoRmO16T-131" value="" style="rounded=1;whiteSpace=wrap;html=1;" vertex="1" parent="1">
          <mxGeometry x="770" y="828" width="140" height="192" as="geometry" />
        </mxCell>
        <mxCell id="LtcZwzsu3ktegoRmO16T-130" value="" style="rounded=1;whiteSpace=wrap;html=1;" vertex="1" parent="1">
          <mxGeometry x="700" y="589" width="360" height="236" as="geometry" />
        </mxCell>
        <mxCell id="LtcZwzsu3ktegoRmO16T-129" value="" style="rounded=1;whiteSpace=wrap;html=1;" vertex="1" parent="1">
          <mxGeometry x="700" y="340" width="280" height="245" as="geometry" />
        </mxCell>
        <mxCell id="LtcZwzsu3ktegoRmO16T-95" value="&amp;gt;&amp;gt;&amp;gt; 2" style="edgeStyle=orthogonalEdgeStyle;rounded=0;orthogonalLoop=1;jettySize=auto;html=1;exitX=1;exitY=0.5;exitDx=0;exitDy=0;entryX=0;entryY=0.5;entryDx=0;entryDy=0;" edge="1" parent="1" source="LtcZwzsu3ktegoRmO16T-97" target="LtcZwzsu3ktegoRmO16T-99">
          <mxGeometry relative="1" as="geometry" />
        </mxCell>
        <mxCell id="LtcZwzsu3ktegoRmO16T-96" style="edgeStyle=orthogonalEdgeStyle;rounded=0;orthogonalLoop=1;jettySize=auto;html=1;exitX=0.5;exitY=1;exitDx=0;exitDy=0;" edge="1" parent="1" source="LtcZwzsu3ktegoRmO16T-97" target="LtcZwzsu3ktegoRmO16T-102">
          <mxGeometry relative="1" as="geometry" />
        </mxCell>
        <mxCell id="LtcZwzsu3ktegoRmO16T-97" value="a,d,b,c" style="rounded=0;whiteSpace=wrap;html=1;" vertex="1" parent="1">
          <mxGeometry x="720" y="360" width="80" height="40" as="geometry" />
        </mxCell>
        <mxCell id="LtcZwzsu3ktegoRmO16T-98" style="edgeStyle=orthogonalEdgeStyle;rounded=0;orthogonalLoop=1;jettySize=auto;html=1;exitX=0.5;exitY=1;exitDx=0;exitDy=0;entryX=0.5;entryY=0;entryDx=0;entryDy=0;" edge="1" parent="1" source="LtcZwzsu3ktegoRmO16T-99" target="LtcZwzsu3ktegoRmO16T-102">
          <mxGeometry relative="1" as="geometry" />
        </mxCell>
        <mxCell id="LtcZwzsu3ktegoRmO16T-99" value="b,c,a,d" style="rounded=0;whiteSpace=wrap;html=1;" vertex="1" parent="1">
          <mxGeometry x="880" y="360" width="80" height="40" as="geometry" />
        </mxCell>
        <mxCell id="LtcZwzsu3ktegoRmO16T-100" style="edgeStyle=orthogonalEdgeStyle;rounded=0;orthogonalLoop=1;jettySize=auto;html=1;exitX=0;exitY=0.5;exitDx=0;exitDy=0;entryX=0.5;entryY=0;entryDx=0;entryDy=0;" edge="1" parent="1" source="LtcZwzsu3ktegoRmO16T-102" target="LtcZwzsu3ktegoRmO16T-104">
          <mxGeometry relative="1" as="geometry" />
        </mxCell>
        <mxCell id="LtcZwzsu3ktegoRmO16T-101" style="edgeStyle=orthogonalEdgeStyle;rounded=0;orthogonalLoop=1;jettySize=auto;html=1;exitX=1;exitY=0.5;exitDx=0;exitDy=0;entryX=0.5;entryY=0;entryDx=0;entryDy=0;" edge="1" parent="1" source="LtcZwzsu3ktegoRmO16T-102" target="LtcZwzsu3ktegoRmO16T-106">
          <mxGeometry relative="1" as="geometry" />
        </mxCell>
        <mxCell id="LtcZwzsu3ktegoRmO16T-102" value="&amp;lt;" style="rhombus;whiteSpace=wrap;html=1;" vertex="1" parent="1">
          <mxGeometry x="820" y="440" width="40" height="40" as="geometry" />
        </mxCell>
        <mxCell id="LtcZwzsu3ktegoRmO16T-103" style="edgeStyle=orthogonalEdgeStyle;rounded=0;orthogonalLoop=1;jettySize=auto;html=1;exitX=0.5;exitY=1;exitDx=0;exitDy=0;entryX=0.5;entryY=1;entryDx=0;entryDy=0;" edge="1" parent="1" source="LtcZwzsu3ktegoRmO16T-104" target="LtcZwzsu3ktegoRmO16T-111">
          <mxGeometry relative="1" as="geometry">
            <Array as="points">
              <mxPoint x="760" y="560" />
            </Array>
          </mxGeometry>
        </mxCell>
        <mxCell id="LtcZwzsu3ktegoRmO16T-104" value="a,c,a,c" style="rounded=0;whiteSpace=wrap;html=1;" vertex="1" parent="1">
          <mxGeometry x="720" y="480" width="80" height="40" as="geometry" />
        </mxCell>
        <mxCell id="LtcZwzsu3ktegoRmO16T-105" style="edgeStyle=orthogonalEdgeStyle;rounded=0;orthogonalLoop=1;jettySize=auto;html=1;exitX=0.5;exitY=1;exitDx=0;exitDy=0;entryX=0.5;entryY=0;entryDx=0;entryDy=0;" edge="1" parent="1" source="LtcZwzsu3ktegoRmO16T-106" target="LtcZwzsu3ktegoRmO16T-111">
          <mxGeometry relative="1" as="geometry">
            <Array as="points">
              <mxPoint x="920" y="560" />
            </Array>
          </mxGeometry>
        </mxCell>
        <mxCell id="LtcZwzsu3ktegoRmO16T-106" value="b,d,b,d" style="rounded=0;whiteSpace=wrap;html=1;" vertex="1" parent="1">
          <mxGeometry x="880" y="480" width="80" height="40" as="geometry" />
        </mxCell>
        <mxCell id="LtcZwzsu3ktegoRmO16T-107" value="&amp;gt;&amp;gt;&amp;gt; 2" style="edgeStyle=orthogonalEdgeStyle;rounded=0;orthogonalLoop=1;jettySize=auto;html=1;exitX=1;exitY=0.5;exitDx=0;exitDy=0;entryX=0;entryY=0.5;entryDx=0;entryDy=0;" edge="1" parent="1" source="LtcZwzsu3ktegoRmO16T-109" target="LtcZwzsu3ktegoRmO16T-113">
          <mxGeometry relative="1" as="geometry" />
        </mxCell>
        <mxCell id="LtcZwzsu3ktegoRmO16T-108" style="edgeStyle=orthogonalEdgeStyle;rounded=0;orthogonalLoop=1;jettySize=auto;html=1;exitX=0.5;exitY=1;exitDx=0;exitDy=0;entryX=0.5;entryY=0;entryDx=0;entryDy=0;" edge="1" parent="1" source="LtcZwzsu3ktegoRmO16T-109" target="LtcZwzsu3ktegoRmO16T-116">
          <mxGeometry relative="1" as="geometry" />
        </mxCell>
        <mxCell id="LtcZwzsu3ktegoRmO16T-109" value="a,b,c,d" style="rounded=0;whiteSpace=wrap;html=1;" vertex="1" parent="1">
          <mxGeometry x="800" y="600" width="80" height="40" as="geometry" />
        </mxCell>
        <mxCell id="LtcZwzsu3ktegoRmO16T-110" style="edgeStyle=orthogonalEdgeStyle;rounded=0;orthogonalLoop=1;jettySize=auto;html=1;exitX=1;exitY=0.5;exitDx=0;exitDy=0;entryX=0.5;entryY=0;entryDx=0;entryDy=0;" edge="1" parent="1" source="LtcZwzsu3ktegoRmO16T-111" target="LtcZwzsu3ktegoRmO16T-109">
          <mxGeometry relative="1" as="geometry" />
        </mxCell>
        <mxCell id="LtcZwzsu3ktegoRmO16T-111" value="" style="triangle;whiteSpace=wrap;html=1;rotation=90;" vertex="1" parent="1">
          <mxGeometry x="820" y="535" width="40" height="50" as="geometry" />
        </mxCell>
        <mxCell id="LtcZwzsu3ktegoRmO16T-112" style="edgeStyle=orthogonalEdgeStyle;rounded=0;orthogonalLoop=1;jettySize=auto;html=1;exitX=0.5;exitY=1;exitDx=0;exitDy=0;entryX=0.5;entryY=0;entryDx=0;entryDy=0;" edge="1" parent="1" source="LtcZwzsu3ktegoRmO16T-113" target="LtcZwzsu3ktegoRmO16T-116">
          <mxGeometry relative="1" as="geometry" />
        </mxCell>
        <mxCell id="LtcZwzsu3ktegoRmO16T-113" value="c,d,a,b" style="rounded=0;whiteSpace=wrap;html=1;" vertex="1" parent="1">
          <mxGeometry x="960" y="600" width="80" height="40" as="geometry" />
        </mxCell>
        <mxCell id="LtcZwzsu3ktegoRmO16T-114" style="edgeStyle=orthogonalEdgeStyle;rounded=0;orthogonalLoop=1;jettySize=auto;html=1;exitX=0;exitY=0.5;exitDx=0;exitDy=0;entryX=0.5;entryY=0;entryDx=0;entryDy=0;" edge="1" parent="1" source="LtcZwzsu3ktegoRmO16T-116" target="LtcZwzsu3ktegoRmO16T-118">
          <mxGeometry relative="1" as="geometry" />
        </mxCell>
        <mxCell id="LtcZwzsu3ktegoRmO16T-115" style="edgeStyle=orthogonalEdgeStyle;rounded=0;orthogonalLoop=1;jettySize=auto;html=1;exitX=1;exitY=0.5;exitDx=0;exitDy=0;entryX=0.5;entryY=0;entryDx=0;entryDy=0;" edge="1" parent="1" source="LtcZwzsu3ktegoRmO16T-116" target="LtcZwzsu3ktegoRmO16T-120">
          <mxGeometry relative="1" as="geometry" />
        </mxCell>
        <mxCell id="LtcZwzsu3ktegoRmO16T-116" value="&amp;lt;" style="rhombus;whiteSpace=wrap;html=1;" vertex="1" parent="1">
          <mxGeometry x="820" y="680" width="40" height="40" as="geometry" />
        </mxCell>
        <mxCell id="LtcZwzsu3ktegoRmO16T-117" style="edgeStyle=orthogonalEdgeStyle;rounded=0;orthogonalLoop=1;jettySize=auto;html=1;exitX=0.5;exitY=1;exitDx=0;exitDy=0;entryX=0.5;entryY=1;entryDx=0;entryDy=0;" edge="1" parent="1" source="LtcZwzsu3ktegoRmO16T-118" target="LtcZwzsu3ktegoRmO16T-123">
          <mxGeometry relative="1" as="geometry">
            <mxPoint x="760" y="800" as="targetPoint" />
            <Array as="points">
              <mxPoint x="760" y="800" />
            </Array>
          </mxGeometry>
        </mxCell>
        <mxCell id="LtcZwzsu3ktegoRmO16T-118" value="a,b,a,b" style="rounded=0;whiteSpace=wrap;html=1;" vertex="1" parent="1">
          <mxGeometry x="720" y="720" width="80" height="40" as="geometry" />
        </mxCell>
        <mxCell id="LtcZwzsu3ktegoRmO16T-119" style="edgeStyle=orthogonalEdgeStyle;rounded=0;orthogonalLoop=1;jettySize=auto;html=1;exitX=0.5;exitY=1;exitDx=0;exitDy=0;" edge="1" parent="1" source="LtcZwzsu3ktegoRmO16T-120" target="LtcZwzsu3ktegoRmO16T-123">
          <mxGeometry relative="1" as="geometry">
            <mxPoint x="870" y="800" as="targetPoint" />
            <Array as="points">
              <mxPoint x="920" y="800" />
            </Array>
          </mxGeometry>
        </mxCell>
        <mxCell id="LtcZwzsu3ktegoRmO16T-120" value="c,d,c,d" style="rounded=0;whiteSpace=wrap;html=1;" vertex="1" parent="1">
          <mxGeometry x="880" y="720" width="80" height="40" as="geometry" />
        </mxCell>
        <mxCell id="LtcZwzsu3ktegoRmO16T-126" style="edgeStyle=orthogonalEdgeStyle;rounded=0;orthogonalLoop=1;jettySize=auto;html=1;exitX=0.5;exitY=1;exitDx=0;exitDy=0;entryX=0.5;entryY=0;entryDx=0;entryDy=0;" edge="1" parent="1" source="LtcZwzsu3ktegoRmO16T-121" target="LtcZwzsu3ktegoRmO16T-125">
          <mxGeometry relative="1" as="geometry" />
        </mxCell>
        <mxCell id="LtcZwzsu3ktegoRmO16T-121" value="a,c,b,d" style="rounded=0;whiteSpace=wrap;html=1;" vertex="1" parent="1">
          <mxGeometry x="800" y="840" width="80" height="40" as="geometry" />
        </mxCell>
        <mxCell id="LtcZwzsu3ktegoRmO16T-122" style="edgeStyle=orthogonalEdgeStyle;rounded=0;orthogonalLoop=1;jettySize=auto;html=1;exitX=1;exitY=0.5;exitDx=0;exitDy=0;entryX=0.5;entryY=0;entryDx=0;entryDy=0;" edge="1" parent="1" source="LtcZwzsu3ktegoRmO16T-123" target="LtcZwzsu3ktegoRmO16T-121">
          <mxGeometry relative="1" as="geometry" />
        </mxCell>
        <mxCell id="LtcZwzsu3ktegoRmO16T-123" value="" style="triangle;whiteSpace=wrap;html=1;rotation=90;" vertex="1" parent="1">
          <mxGeometry x="820" y="775" width="40" height="50" as="geometry" />
        </mxCell>
        <mxCell id="LtcZwzsu3ktegoRmO16T-128" style="edgeStyle=orthogonalEdgeStyle;rounded=0;orthogonalLoop=1;jettySize=auto;html=1;exitX=0.5;exitY=1;exitDx=0;exitDy=0;entryX=0.5;entryY=0;entryDx=0;entryDy=0;" edge="1" parent="1" source="LtcZwzsu3ktegoRmO16T-125" target="LtcZwzsu3ktegoRmO16T-127">
          <mxGeometry relative="1" as="geometry" />
        </mxCell>
        <mxCell id="LtcZwzsu3ktegoRmO16T-125" value="&amp;lt;" style="rhombus;whiteSpace=wrap;html=1;" vertex="1" parent="1">
          <mxGeometry x="820" y="910" width="40" height="40" as="geometry" />
        </mxCell>
        <mxCell id="LtcZwzsu3ktegoRmO16T-127" value="a,b,c,d" style="rounded=0;whiteSpace=wrap;html=1;" vertex="1" parent="1">
          <mxGeometry x="800" y="970" width="80" height="40" as="geometry" />
        </mxCell>
        <mxCell id="LtcZwzsu3ktegoRmO16T-132" value="Shift and Compare" style="text;html=1;strokeColor=none;fillColor=none;align=center;verticalAlign=middle;whiteSpace=wrap;rounded=0;" vertex="1" parent="1">
          <mxGeometry x="850" y="320" width="110" height="20" as="geometry" />
        </mxCell>
        <mxCell id="LtcZwzsu3ktegoRmO16T-133" value="Shift and Compare" style="text;html=1;strokeColor=none;fillColor=none;align=center;verticalAlign=middle;whiteSpace=wrap;rounded=0;" vertex="1" parent="1">
          <mxGeometry x="970" y="569" width="110" height="20" as="geometry" />
        </mxCell>
        <mxCell id="LtcZwzsu3ktegoRmO16T-134" value="End Compare" style="text;html=1;strokeColor=none;fillColor=none;align=center;verticalAlign=middle;whiteSpace=wrap;rounded=0;" vertex="1" parent="1">
          <mxGeometry x="910" y="840" width="90" height="20" as="geometry" />
        </mxCell>
      </root>
    </mxGraphModel>
  </diagram>
</mxfile>
